<mxfile host="app.diagrams.net" modified="2024-03-14T06:47:04.992Z" agent="Mozilla/5.0 (Windows NT 10.0; Win64; x64) AppleWebKit/537.36 (KHTML, like Gecko) Chrome/122.0.0.0 Safari/537.36" etag="w9lxi9F2Bc3V_Sb40O4y" version="24.0.6" type="device">
  <diagram name="第 1 页" id="Lhk7iqGXQ-fLZAvV0IkU">
    <mxGraphModel dx="1434" dy="746" grid="1" gridSize="10" guides="1" tooltips="1" connect="1" arrows="1" fold="1" page="1" pageScale="1" pageWidth="827" pageHeight="1169" math="0" shadow="0">
      <root>
        <mxCell id="0" />
        <mxCell id="1" parent="0" />
        <mxCell id="GjbjDTf6JkTWPSmCzYIe-1" value="" style="rounded=0;whiteSpace=wrap;html=1;fillColor=#fff2cc;strokeColor=#d6b656;" parent="1" vertex="1">
          <mxGeometry x="90" y="40" width="460" height="80" as="geometry" />
        </mxCell>
        <mxCell id="GjbjDTf6JkTWPSmCzYIe-4" value="前端展示层" style="rounded=0;whiteSpace=wrap;html=1;fillColor=#e1d5e7;strokeColor=#9673a6;" parent="1" vertex="1">
          <mxGeometry x="90" y="40" width="120" height="80" as="geometry" />
        </mxCell>
        <mxCell id="GjbjDTf6JkTWPSmCzYIe-5" value="api网关" style="rounded=0;whiteSpace=wrap;html=1;" parent="1" vertex="1">
          <mxGeometry x="230" y="50" width="140" height="60" as="geometry" />
        </mxCell>
        <mxCell id="GjbjDTf6JkTWPSmCzYIe-6" value="Nginx" style="rounded=0;whiteSpace=wrap;html=1;" parent="1" vertex="1">
          <mxGeometry x="390" y="50" width="140" height="60" as="geometry" />
        </mxCell>
        <mxCell id="GjbjDTf6JkTWPSmCzYIe-7" value="" style="rounded=0;whiteSpace=wrap;html=1;fillColor=#d5e8d4;strokeColor=#82b366;" parent="1" vertex="1">
          <mxGeometry x="90" y="131" width="460" height="80" as="geometry" />
        </mxCell>
        <mxCell id="GjbjDTf6JkTWPSmCzYIe-8" value="注册中心、服务中心" style="rounded=0;whiteSpace=wrap;html=1;fillColor=#dae8fc;strokeColor=#6c8ebf;" parent="1" vertex="1">
          <mxGeometry x="90" y="131" width="120" height="80" as="geometry" />
        </mxCell>
        <mxCell id="GjbjDTf6JkTWPSmCzYIe-9" value="Nacos" style="rounded=0;whiteSpace=wrap;html=1;" parent="1" vertex="1">
          <mxGeometry x="230" y="141" width="300" height="60" as="geometry" />
        </mxCell>
        <mxCell id="bSwcw1P2C5m8dZfzIWhJ-1" value="" style="rounded=0;whiteSpace=wrap;html=1;fillColor=#f8cecc;strokeColor=#b85450;" vertex="1" parent="1">
          <mxGeometry x="90" y="222" width="460" height="228" as="geometry" />
        </mxCell>
        <mxCell id="bSwcw1P2C5m8dZfzIWhJ-2" value="微服务层" style="rounded=0;whiteSpace=wrap;html=1;fillColor=#ffe6cc;strokeColor=#d79b00;" vertex="1" parent="1">
          <mxGeometry x="90" y="222" width="120" height="228" as="geometry" />
        </mxCell>
        <mxCell id="bSwcw1P2C5m8dZfzIWhJ-3" value="sys-api" style="rounded=0;whiteSpace=wrap;html=1;" vertex="1" parent="1">
          <mxGeometry x="230" y="232" width="140" height="60" as="geometry" />
        </mxCell>
        <mxCell id="bSwcw1P2C5m8dZfzIWhJ-4" value="oms-api" style="rounded=0;whiteSpace=wrap;html=1;" vertex="1" parent="1">
          <mxGeometry x="390" y="232" width="140" height="60" as="geometry" />
        </mxCell>
        <mxCell id="bSwcw1P2C5m8dZfzIWhJ-5" value="tao-api" style="rounded=0;whiteSpace=wrap;html=1;" vertex="1" parent="1">
          <mxGeometry x="230" y="304" width="140" height="60" as="geometry" />
        </mxCell>
        <mxCell id="bSwcw1P2C5m8dZfzIWhJ-6" value="jd-api" style="rounded=0;whiteSpace=wrap;html=1;" vertex="1" parent="1">
          <mxGeometry x="390" y="304" width="140" height="60" as="geometry" />
        </mxCell>
        <mxCell id="bSwcw1P2C5m8dZfzIWhJ-7" value="dou-api" style="rounded=0;whiteSpace=wrap;html=1;" vertex="1" parent="1">
          <mxGeometry x="230" y="378" width="140" height="60" as="geometry" />
        </mxCell>
        <mxCell id="bSwcw1P2C5m8dZfzIWhJ-8" value="pdd-api" style="rounded=0;whiteSpace=wrap;html=1;" vertex="1" parent="1">
          <mxGeometry x="390" y="378" width="140" height="60" as="geometry" />
        </mxCell>
      </root>
    </mxGraphModel>
  </diagram>
</mxfile>
